HIERARCHY
ROOT Hips
{
 OFFSET 0.000000 0.000000 0.000000
 CHANNELS 6 Xposition Yposition Zposition Yrotation Xrotation Zrotation
 JOINT Chest
 {
  OFFSET 0.000000 9.585900 0.002600
  CHANNELS 3 Yrotation Xrotation Zrotation
  JOINT Chest2
  {
   OFFSET 0.000000 9.601200 -0.005300
   CHANNELS 3 Yrotation Xrotation Zrotation
   JOINT Chest3
   {
    OFFSET 0.000000 9.561800 0.000000
    CHANNELS 3 Yrotation Xrotation Zrotation
    JOINT Chest4
    {
     OFFSET 0.000000 9.552100 0.000000
     CHANNELS 3 Yrotation Xrotation Zrotation
     JOINT Neck
     {
      OFFSET 0.000000 14.453000 0.000000
      CHANNELS 3 Yrotation Xrotation Zrotation
      JOINT Head
      {
       OFFSET 0.000000 8.936500 -0.011300
       CHANNELS 3 Yrotation Xrotation Zrotation
       End Site
       {
        OFFSET 0.000000 17.073600 -0.006000
       }
      }
     }
     JOINT RightCollar
     {
      OFFSET -2.921100 9.558500 0.000000
      CHANNELS 3 Yrotation Xrotation Zrotation
      JOINT RightShoulder
      {
       OFFSET -13.519700 0.000000 0.000000
       CHANNELS 3 Yrotation Xrotation Zrotation
       JOINT RightElbow
       {
        OFFSET 0.000000 -29.696600 0.000000
        CHANNELS 3 Yrotation Xrotation Zrotation
        JOINT RightWrist
        {
         OFFSET 0.000000 -24.004700 0.000000
         CHANNELS 3 Yrotation Xrotation Zrotation
         End Site
         {
          OFFSET 0.000000 -17.728500 0.000000
         }
        }
       }
      }
     }
     JOINT LeftCollar
     {
      OFFSET 2.921100 9.558500 0.000000
      CHANNELS 3 Yrotation Xrotation Zrotation
      JOINT LeftShoulder
      {
       OFFSET 13.519700 0.000000 0.000000
       CHANNELS 3 Yrotation Xrotation Zrotation
       JOINT LeftElbow
       {
        OFFSET 0.000000 -29.696600 0.000000
        CHANNELS 3 Yrotation Xrotation Zrotation
        JOINT LeftWrist
        {
         OFFSET 0.000000 -24.004700 0.000000
         CHANNELS 3 Yrotation Xrotation Zrotation
         End Site
         {
          OFFSET 0.000000 -17.728500 0.000000
         }
        }
       }
      }
     }
    }
   }
  }
 }
 JOINT RightHip
 {
  OFFSET -7.771700 -0.012900 -0.001300
  CHANNELS 3 Yrotation Xrotation Zrotation
  JOINT RightKnee
  {
   OFFSET 0.000000 -40.869800 0.001200
   CHANNELS 3 Yrotation Xrotation Zrotation
   JOINT RightAnkle
   {
    OFFSET 0.000000 -39.717900 0.002100
    CHANNELS 3 Yrotation Xrotation Zrotation
    JOINT RightToe
    {
     OFFSET 0.000000 -4.965400 11.033500
     CHANNELS 3 Yrotation Xrotation Zrotation
     End Site
     {
      OFFSET 0.000000 -1.423100 5.872300
     }
    }
   }
  }
 }
 JOINT LeftHip
 {
  OFFSET 7.771700 -0.012900 -0.001300
  CHANNELS 3 Yrotation Xrotation Zrotation
  JOINT LeftKnee
  {
   OFFSET 0.000000 -40.869800 0.001200
   CHANNELS 3 Yrotation Xrotation Zrotation
   JOINT LeftAnkle
   {
    OFFSET 0.000000 -39.717900 0.002100
    CHANNELS 3 Yrotation Xrotation Zrotation
    JOINT LeftToe
    {
     OFFSET 0.000000 -4.965400 11.033500
     CHANNELS 3 Yrotation Xrotation Zrotation
     End Site
     {
      OFFSET 0.000000 -1.423100 5.872300
     }
    }
   }
  }
 }
}
MOTION
Frames: 8
Frame Time: 0.008333
0.000000 85.388000 0.000000 0.000000 -5.767877 0.000000 0.000000 11.653817 0.000000 0.000000 -5.885947 0.000000 0.000000 -0.000000 0.000000 0.000000 -0.000000 0.000000 0.000000 12.528835 0.000000 0.000000 0.711642 0.000000 0.000000 -0.000000 0.000000 0.000000 0.000000 -90.000000 0.000000 -2.309062 0.000000 0.000000 2.309062 0.000000 0.000000 -0.000000 0.000000 0.000000 -0.000000 90.000000 0.000000 -2.309062 0.000000 0.000000 2.309062 0.000000 0.000000 8.520406 0.000000 0.000000 1.905762 0.000000 -0.000000 -4.658285 0.000000 0.000000 -0.000000 0.000000 0.000000 8.520406 0.000000 0.000000 1.905762 0.000000 -0.000000 -4.658285 0.000000 0.000000 -0.000000 0.000000
-136.077660 51.564943 -58.684062 172.046580 -22.364340 0.544263 -1.077234 12.233852 0.712181 -0.142445 0.910878 0.086302 -0.142737 1.554505 0.155999 -0.831813 11.150504 1.057088 -1.400270 18.843808 -1.671309 -1.101274 -5.831237 -1.449725 2.913084 18.455468 11.678570 15.310384 -8.270003 -34.241864 135.447105 -51.730281 179.270904 -4.818577 1.322175 3.989316 -0.352476 17.320931 -13.114634 -21.367485 -3.218915 31.245353 -118.548644 -47.221865 169.099812 12.712004 -6.138386 10.451261 -11.946254 -59.830973 9.301125 -81.957080 84.840310 -89.409366 -4.645845 -10.775936 7.190044 0.007703 -0.333861 -0.112292 -1.178697 -57.991226 -1.321957 65.035997 82.653246 73.661432 3.338170 -14.052421 -7.874465 0.198925 0.430224 0.059870
-136.072840 51.567204 -58.682831 172.060108 -22.363384 0.512406 -1.028274 12.231888 0.756713 -0.077820 0.909654 0.092550 -0.193329 1.553980 0.152032 -0.800813 11.152522 1.065245 -1.317981 18.873064 -1.679270 -1.012501 -5.799398 -1.476941 2.905260 18.448429 11.681692 15.342840 -8.237101 -34.271043 135.565248 -51.709447 179.164463 -4.777543 1.462855 3.739491 -0.351971 17.312450 -13.109418 -21.366509 -3.270298 31.359988 -118.669151 -47.176508 169.206318 12.683404 -6.151641 10.638745 -12.040690 -59.822700 9.360106 -81.924263 84.864347 -89.353732 -4.666948 -10.763630 7.157163 0.030133 -0.345953 -0.082582 -1.128113 -57.994939 -1.318761 64.898719 82.686904 73.560928 3.297398 -14.060663 -7.872151 0.230550 0.429464 0.084424
-136.074784 51.570105 -58.682763 172.065497 -22.363600 0.522018 -0.984800 12.231070 0.761877 -0.075499 0.909829 0.092957 -0.142479 1.554253 0.156602 -0.819406 11.153965 1.070014 -1.220576 18.896304 -1.690972 -0.906800 -5.774207 -1.511556 2.904107 18.438533 11.679356 15.376861 -8.206455 -34.296248 135.680272 -51.682861 179.068931 -4.689877 1.567225 3.564908 -0.372725 17.307819 -13.108856 -21.354799 -3.322662 31.471063 -118.747779 -47.141081 169.271578 12.670734 -6.173198 10.738347 -12.051042 -59.822293 9.345490 -81.904915 84.879474 -89.334963 -4.675912 -10.754495 7.155526 0.037644 -0.355511 -0.080833 -0.988849 -57.999692 -1.388253 64.772401 82.716096 73.439165 3.265057 -14.060879 -7.836858 0.220690 0.422809 0.105348
-136.083704 51.573546 -58.683868 172.073154 -22.364518 0.569140 -0.956326 12.232634 0.729366 -0.096233 0.908066 0.087860 -0.103230 1.556780 0.164134 -0.814050 11.156621 1.075903 -1.107542 18.911835 -1.706333 -0.783761 -5.757513 -1.553483 2.907390 18.423264 11.668772 15.413076 -8.177929 -34.317964 135.786054 -51.652135 178.994303 -4.674119 1.741042 3.307838 -0.424466 17.300881 -13.111977 -21.343347 -3.348713 31.523314 -118.735035 -47.064843 169.277156 12.664931 -6.215053 10.774774 -11.983514 -59.830786 9.249056 -81.910955 84.887172 -89.344392 -4.694473 -10.753016 7.155200 0.045313 -0.354918 -0.059955 -0.774932 -58.005583 -1.520961 64.678099 82.728151 73.294592 3.242331 -14.062710 -7.721967 0.151607 0.421447 0.091401
-136.085130 51.577027 -58.683394 172.089948 -22.360647 0.562237 -0.927912 12.233078 0.750422 -0.083839 0.909366 0.090469 -0.113123 1.557075 0.162899 -0.829692 11.153820 1.073806 -0.952459 18.924598 -1.721114 -0.645783 -5.751596 -1.600765 2.944108 18.408926 11.656284 15.449944 -8.152665 -34.336781 135.875052 -51.617501 178.942473 -4.660875 1.906461 3.085902 -0.408528 17.295778 -13.128883 -21.381651 -3.366539 31.644287 -118.701031 -47.047918 169.260548 12.651994 -6.278606 10.772044 -12.008805 -59.832050 9.252340 -81.900846 84.897798 -89.332582 -4.702513 -10.738669 7.152146 0.051744 -0.368586 -0.044704 -0.633984 -58.014345 -1.578927 64.496904 82.765618 73.128488 3.182167 -14.070003 -7.673837 0.171375 0.420801 0.105067
-136.085453 51.580886 -58.683241 172.124601 -22.358195 0.536658 -0.913771 12.236972 0.782725 -0.072497 0.911526 0.094294 -0.145044 1.551899 0.155654 -0.824991 11.154647 1.077145 -0.789020 18.929640 -1.738587 -0.495974 -5.756686 -1.651365 2.981980 18.394054 11.642361 15.488603 -8.129398 -34.354031 135.945593 -51.576685 178.905280 -4.630162 2.040428 2.935852 -0.400826 17.271302 -13.173819 -21.447906 -3.332267 31.767677 -118.593174 -47.021029 169.202220 12.627974 -6.352831 10.748667 -12.076506 -59.827434 9.281297 -81.910822 84.913413 -89.344669 -4.700659 -10.726338 7.147699 0.056355 -0.381862 -0.021011 -0.510322 -58.021964 -1.627549 64.260144 82.813793 72.929046 3.099473 -14.079321 -7.633936 0.224503 0.421077 0.123420
-136.100321 51.585353 -58.685836 172.171238 -22.358805 0.588821 -0.928820 12.242643 0.728115 -0.082426 0.910976 0.093307 -0.155226 1.550210 0.154804 -0.755608 11.175765 1.096038 -0.686665 18.903828 -1.761175 -0.336008 -5.770472 -1.704140 2.946309 18.356649 11.624908 15.535393 -8.103524 -34.372276 135.999716 -51.527751 178.879039 -4.607725 2.164564 2.836938 -0.489081 17.239361 -13.185859 -21.500988 -3.312868 31.830116 -118.444894 -46.969832 169.109972 12.595602 -6.420251 10.713599 -12.004406 -59.838243 9.145087 -81.980370 84.923361 -89.422682 -4.735810 -10.735745 7.151730 0.085262 -0.375478 -0.002588 -0.250351 -58.030180 -1.811379 64.122489 82.818973 72.716609 3.057518 -14.080259 -7.466325 0.125896 0.423989 0.103875
